<?xml version="1.0" standalone="no"?><!DOCTYPE svg PUBLIC "-//W3C//DTD SVG 1.1//EN" "http://www.w3.org/Graphics/SVG/1.1/DTD/svg11.dtd"><svg t="1524277880281" class="icon" style="" viewBox="0 0 1024 1024" version="1.1" xmlns="http://www.w3.org/2000/svg" p-id="551" xmlns:xlink="http://www.w3.org/1999/xlink" width="20" height="20"><defs><style type="text/css"></style></defs><path d="M752.63 344.2l40.83-40.83a21.33 21.33 0 0 0-30.17-30.17l-40.84 40.84a322.29 322.29 0 0 0-65.78-44.93 21.35 21.35 0 1 0-19.33 38.08 276.2 276.2 0 0 1 152 247.46C789.33 707.58 664.92 832 512 832S234.67 707.58 234.67 554.67 359.08 277.33 512 277.33A21.32 21.32 0 0 0 533.33 256v-64h64a21.33 21.33 0 1 0 0-42.67H426.67a21.33 21.33 0 1 0 0 42.67h64v43.75C324.16 246.8 192 385.41 192 554.67c0 176.46 143.54 320 320 320s320-143.54 320-320a318.36 318.36 0 0 0-79.37-210.47z" p-id="552" fill="#d81e06"></path><path d="M512 405.33a21.32 21.32 0 0 0-21.33 21.33v128a21.33 21.33 0 0 0 42.67 0v-128A21.32 21.32 0 0 0 512 405.33z" p-id="553" fill="#d81e06"></path></svg>